<?xml version="1.0" encoding="UTF-8"?>
<svg version="1.1" viewBox="0 0 1e3 600" xmlns="http://www.w3.org/2000/svg">
<rect width="1e3" height="600" fill="#fff"/>
<rect transform="matrix(.69465 0 0 .69465 0 43.788)" x="179.95" y="202.17" width="333.33" height="333.33" rx="13.333" ry="13.333" fill="#8a2be2"/>
<path transform="matrix(.69465 0 0 .69465 0 43.788)" d="m346.7 443.84c28.723 0 40.379-20.496 40.379-45.789v-104.21h-18.489v102.4c0 22.281-7.836 31.316-23.675 31.316-10.653 0-18.879-4.7964-25.516-16.453l-13.246 9.4255c8.6447 15.282 21.891 23.313 40.547 23.313z" fill="#fff"/>
<path transform="matrix(.69465 0 0 .69465 0 43.788)" d="m634.06 443.84c26.524 0 37.288-18.927 37.288-42.283v-96.232h-17.073v94.558c0 20.575-7.2361 28.918-21.863 28.918-9.8369 0-17.433-4.4292-23.562-15.193l-12.232 8.7039c7.9828 14.112 20.215 21.528 37.442 21.528zm111.63 0c24.644 0 46.712-19.288 46.712-52.661 0-33.554-22.069-53.021-46.712-53.021-24.67 0-46.738 19.468-46.738 53.021 0 33.373 22.069 52.661 46.738 52.661zm0-14.112c-17.433 0-29.124-15.373-29.124-38.549 0-23.176 11.691-38.936 29.124-38.936 17.433 0 29.279 15.76 29.279 38.936 0 23.176-11.845 38.549-29.279 38.549zm117.55 14.112c23.176 0 43.751-19.854 43.751-54.515 0-30.773-14.086-51.167-40.249-51.167-11.124 0-22.429 6.2833-31.519 14.266l0.56652-18.18v-40.403h-16.867v147.58h13.519l1.4936-10.378h0.74678c8.7039 7.9571 19.288 12.798 28.558 12.798zm-2.7811-14.112c-6.6953 0-15.76-2.7811-24.67-10.558v-52.841c9.6309-9.0901 18.541-13.906 27.064-13.906 19.107 0 26.524 15.013 26.524 37.262 0 25.03-12.232 40.043-28.918 40.043zm116.06 11.691h76.558v-14.652h-59.33v-121.44h-17.227zm99.193 0h16.867v-100.69h-16.867zm8.5236-121.44c6.6695 0 11.305-4.4549 11.305-11.305 0-6.4893-4.6352-10.944-11.305-10.944-6.6695 0-11.305 4.4549-11.305 10.944 0 6.8498 4.6352 11.305 11.305 11.305zm68.781 123.86c23.742 0 36.721-13.545 36.721-29.871 0-19.082-16.146-25.03-30.773-30.592-11.33-4.2489-21.708-7.7768-21.708-17.408 0-7.8026 5.9485-14.472 18.721-14.472 8.9099 0 15.966 3.7082 22.815 8.9099l8.1631-10.944c-7.8026-6.1288-18.721-11.305-31.159-11.305-21.863 0-34.841 12.592-34.841 28.532 0 17.073 15.373 23.923 29.459 29.124 11.124 4.2489 22.996 8.7039 22.996 19.082 0 8.7296-6.4893 15.76-19.828 15.76-12.052 0-21.142-4.8155-29.845-11.845l-8.3433 11.124c9.6309 7.9571 23.356 13.906 37.622 13.906zm88.069 0c6.1288 0 12.798-1.8541 18.541-3.7082l-3.3219-12.618c-3.3476 1.2876-7.9828 2.6009-11.511 2.6009-11.665 0-15.579-7.0558-15.579-19.468v-56.189h27.27v-13.725h-27.27v-28.352h-14.086l-2.0343 28.352-15.76 0.92704v12.798h15.013v55.803c0 20.034 7.2361 33.579 28.738 33.579z" fill="#8a2be2"/>
</svg>
